<mxfile host="65bd71144e">
    <diagram id="xNmcBscQncian_8Ltob8" name="Page-1">
        <mxGraphModel dx="1302" dy="1024" grid="1" gridSize="10" guides="1" tooltips="1" connect="1" arrows="1" fold="1" page="1" pageScale="1" pageWidth="850" pageHeight="1100" background="#1A1A1A" math="0" shadow="0">
            <root>
                <mxCell id="0"/>
                <mxCell id="1" parent="0"/>
                <mxCell id="84" style="edgeStyle=none;html=1;exitX=0.5;exitY=1;exitDx=0;exitDy=0;entryX=0.5;entryY=0;entryDx=0;entryDy=0;fillColor=none;strokeColor=#33FF33;fontColor=#33FF33;" parent="1" source="4" target="27" edge="1">
                    <mxGeometry relative="1" as="geometry"/>
                </mxCell>
                <mxCell id="108" style="edgeStyle=none;html=1;exitX=1;exitY=0.5;exitDx=0;exitDy=0;entryX=0;entryY=0.5;entryDx=0;entryDy=0;strokeColor=#33FF33;fontColor=#33FF33;fillColor=none;" edge="1" parent="1" source="4" target="28">
                    <mxGeometry relative="1" as="geometry"/>
                </mxCell>
                <mxCell id="109" style="edgeStyle=none;html=1;exitX=0;exitY=0.5;exitDx=0;exitDy=0;entryX=1;entryY=0.5;entryDx=0;entryDy=0;strokeColor=#33FF33;fontColor=#33FF33;fillColor=none;" edge="1" parent="1" source="4" target="26">
                    <mxGeometry relative="1" as="geometry"/>
                </mxCell>
                <mxCell id="4" value="Asignatura" style="whiteSpace=wrap;html=1;align=center;fillColor=none;fontColor=#33FF33;strokeColor=#33FF33;" parent="1" vertex="1">
                    <mxGeometry x="550" y="720" width="100" height="40" as="geometry"/>
                </mxCell>
                <mxCell id="115" style="edgeStyle=none;html=1;exitX=0.25;exitY=1;exitDx=0;exitDy=0;entryX=0.5;entryY=0;entryDx=0;entryDy=0;strokeColor=#33FF33;fontColor=#33FF33;fillColor=none;" edge="1" parent="1" source="7" target="36">
                    <mxGeometry relative="1" as="geometry"/>
                </mxCell>
                <mxCell id="116" style="edgeStyle=none;html=1;exitX=0.75;exitY=1;exitDx=0;exitDy=0;entryX=0.5;entryY=0;entryDx=0;entryDy=0;strokeColor=#33FF33;fontColor=#33FF33;fillColor=none;" edge="1" parent="1" source="7" target="35">
                    <mxGeometry relative="1" as="geometry"/>
                </mxCell>
                <mxCell id="117" style="edgeStyle=none;html=1;exitX=1;exitY=0.5;exitDx=0;exitDy=0;entryX=0;entryY=0.5;entryDx=0;entryDy=0;strokeColor=#33FF33;fontColor=#33FF33;fillColor=none;" edge="1" parent="1" source="7" target="33">
                    <mxGeometry relative="1" as="geometry"/>
                </mxCell>
                <mxCell id="118" style="edgeStyle=none;html=1;exitX=1;exitY=0;exitDx=0;exitDy=0;entryX=0;entryY=1;entryDx=0;entryDy=0;strokeColor=#33FF33;fontColor=#33FF33;fillColor=none;" edge="1" parent="1" source="7" target="32">
                    <mxGeometry relative="1" as="geometry"/>
                </mxCell>
                <mxCell id="119" style="edgeStyle=none;html=1;exitX=0.5;exitY=0;exitDx=0;exitDy=0;entryX=0.5;entryY=1;entryDx=0;entryDy=0;strokeColor=#33FF33;fontColor=#33FF33;fillColor=none;" edge="1" parent="1" source="7" target="34">
                    <mxGeometry relative="1" as="geometry"/>
                </mxCell>
                <mxCell id="120" style="edgeStyle=none;html=1;exitX=0;exitY=0;exitDx=0;exitDy=0;entryX=0.5;entryY=1;entryDx=0;entryDy=0;strokeColor=#33FF33;fontColor=#33FF33;fillColor=none;" edge="1" parent="1" source="7" target="37">
                    <mxGeometry relative="1" as="geometry"/>
                </mxCell>
                <mxCell id="7" value="Oferta de asignatura" style="shape=ext;margin=3;double=1;whiteSpace=wrap;html=1;align=center;fillColor=none;fontColor=#33FF33;strokeColor=#33FF33;" parent="1" vertex="1">
                    <mxGeometry x="790" y="480" width="140" height="40" as="geometry"/>
                </mxCell>
                <mxCell id="16" style="edgeStyle=none;html=1;exitX=0;exitY=0.5;exitDx=0;exitDy=0;entryX=1;entryY=0.5;entryDx=0;entryDy=0;strokeColor=#33FF33;fillColor=none;fontColor=#33FF33;" parent="1" source="8" target="12" edge="1">
                    <mxGeometry relative="1" as="geometry"/>
                </mxCell>
                <mxCell id="121" style="edgeStyle=none;html=1;exitX=0.5;exitY=1;exitDx=0;exitDy=0;entryX=0.5;entryY=0;entryDx=0;entryDy=0;strokeColor=#33FF33;fontColor=#33FF33;fillColor=none;" edge="1" parent="1" source="8" target="13">
                    <mxGeometry relative="1" as="geometry"/>
                </mxCell>
                <mxCell id="122" style="edgeStyle=none;html=1;exitX=0.5;exitY=0;exitDx=0;exitDy=0;entryX=0.5;entryY=1;entryDx=0;entryDy=0;strokeColor=#33FF33;fontColor=#33FF33;fillColor=none;" edge="1" parent="1" source="8" target="11">
                    <mxGeometry relative="1" as="geometry"/>
                </mxCell>
                <mxCell id="8" value="Estudiante" style="whiteSpace=wrap;html=1;align=center;fillColor=none;fontColor=#33FF33;strokeColor=#33FF33;" parent="1" vertex="1">
                    <mxGeometry x="170" y="360" width="100" height="40" as="geometry"/>
                </mxCell>
                <mxCell id="111" style="edgeStyle=none;html=1;exitX=0;exitY=0.5;exitDx=0;exitDy=0;entryX=1;entryY=0.5;entryDx=0;entryDy=0;strokeColor=#33FF33;fontColor=#33FF33;fillColor=none;" edge="1" parent="1" source="9" target="21">
                    <mxGeometry relative="1" as="geometry"/>
                </mxCell>
                <mxCell id="112" style="edgeStyle=none;html=1;exitX=0.25;exitY=1;exitDx=0;exitDy=0;entryX=0.5;entryY=0;entryDx=0;entryDy=0;strokeColor=#33FF33;fontColor=#33FF33;fillColor=none;" edge="1" parent="1" source="9" target="20">
                    <mxGeometry relative="1" as="geometry"/>
                </mxCell>
                <mxCell id="113" style="edgeStyle=none;html=1;exitX=0.75;exitY=1;exitDx=0;exitDy=0;entryX=0.5;entryY=0;entryDx=0;entryDy=0;strokeColor=#33FF33;fontColor=#33FF33;fillColor=none;" edge="1" parent="1" source="9" target="19">
                    <mxGeometry relative="1" as="geometry"/>
                </mxCell>
                <mxCell id="114" style="edgeStyle=none;html=1;exitX=1;exitY=0.5;exitDx=0;exitDy=0;entryX=0.5;entryY=0;entryDx=0;entryDy=0;strokeColor=#33FF33;fontColor=#33FF33;fillColor=none;" edge="1" parent="1" source="9" target="18">
                    <mxGeometry relative="1" as="geometry"/>
                </mxCell>
                <mxCell id="9" value="Profesor" style="whiteSpace=wrap;html=1;align=center;fillColor=none;fontColor=#33FF33;strokeColor=#33FF33;" parent="1" vertex="1">
                    <mxGeometry x="1070" y="700" width="100" height="40" as="geometry"/>
                </mxCell>
                <mxCell id="11" value="Matricula" style="ellipse;whiteSpace=wrap;html=1;align=center;fontStyle=4;fillColor=none;fontColor=#33FF33;strokeColor=#33FF33;" parent="1" vertex="1">
                    <mxGeometry x="170" y="270" width="100" height="40" as="geometry"/>
                </mxCell>
                <mxCell id="12" value="Nombre" style="ellipse;whiteSpace=wrap;html=1;align=center;fillColor=none;fontColor=#33FF33;strokeColor=#33FF33;" parent="1" vertex="1">
                    <mxGeometry x="30" y="360" width="100" height="40" as="geometry"/>
                </mxCell>
                <mxCell id="13" value="Carrera" style="ellipse;whiteSpace=wrap;html=1;align=center;fillColor=none;fontColor=#33FF33;strokeColor=#33FF33;" parent="1" vertex="1">
                    <mxGeometry x="170" y="460" width="100" height="40" as="geometry"/>
                </mxCell>
                <mxCell id="18" value="No. nomina" style="ellipse;whiteSpace=wrap;html=1;align=center;fontStyle=4;fillColor=none;fontColor=#33FF33;strokeColor=#33FF33;" parent="1" vertex="1">
                    <mxGeometry x="1240" y="760" width="100" height="40" as="geometry"/>
                </mxCell>
                <mxCell id="19" value="Nombre" style="ellipse;whiteSpace=wrap;html=1;align=center;fillColor=none;fontColor=#33FF33;strokeColor=#33FF33;" parent="1" vertex="1">
                    <mxGeometry x="1130" y="800" width="100" height="40" as="geometry"/>
                </mxCell>
                <mxCell id="20" value="Departamento" style="ellipse;whiteSpace=wrap;html=1;align=center;fillColor=none;fontColor=#33FF33;strokeColor=#33FF33;" parent="1" vertex="1">
                    <mxGeometry x="990" y="800" width="100" height="40" as="geometry"/>
                </mxCell>
                <mxCell id="21" value="Grado" style="ellipse;whiteSpace=wrap;html=1;align=center;fillColor=none;fontColor=#33FF33;strokeColor=#33FF33;" parent="1" vertex="1">
                    <mxGeometry x="880" y="760" width="100" height="40" as="geometry"/>
                </mxCell>
                <mxCell id="26" value="Numero" style="ellipse;whiteSpace=wrap;html=1;align=center;fontStyle=4;fillColor=none;fontColor=#33FF33;strokeColor=#33FF33;" parent="1" vertex="1">
                    <mxGeometry x="380" y="720" width="100" height="40" as="geometry"/>
                </mxCell>
                <mxCell id="27" value="Nombre" style="ellipse;whiteSpace=wrap;html=1;align=center;fillColor=none;fontColor=#33FF33;strokeColor=#33FF33;" parent="1" vertex="1">
                    <mxGeometry x="550" y="810" width="100" height="40" as="geometry"/>
                </mxCell>
                <mxCell id="28" value="Créditos" style="ellipse;whiteSpace=wrap;html=1;align=center;fillColor=none;fontColor=#33FF33;strokeColor=#33FF33;" parent="1" vertex="1">
                    <mxGeometry x="740" y="720" width="100" height="40" as="geometry"/>
                </mxCell>
                <mxCell id="32" value="Año" style="ellipse;whiteSpace=wrap;html=1;align=center;fillColor=none;fontColor=#33FF33;strokeColor=#33FF33;" parent="1" vertex="1">
                    <mxGeometry x="960" y="370" width="100" height="40" as="geometry"/>
                </mxCell>
                <mxCell id="33" value="Semestre" style="ellipse;whiteSpace=wrap;html=1;align=center;fillColor=none;fontColor=#33FF33;strokeColor=#33FF33;" parent="1" vertex="1">
                    <mxGeometry x="1010" y="480" width="100" height="40" as="geometry"/>
                </mxCell>
                <mxCell id="34" value="&lt;u&gt;Profesor&lt;/u&gt;" style="ellipse;whiteSpace=wrap;html=1;align=center;fillColor=none;fontColor=#33FF33;strokeColor=#33FF33;" parent="1" vertex="1">
                    <mxGeometry x="810" y="340" width="100" height="40" as="geometry"/>
                </mxCell>
                <mxCell id="35" value="Horario" style="ellipse;whiteSpace=wrap;html=1;align=center;fillColor=none;fontColor=#33FF33;strokeColor=#33FF33;" parent="1" vertex="1">
                    <mxGeometry x="880" y="620" width="100" height="40" as="geometry"/>
                </mxCell>
                <mxCell id="36" value="Aula" style="ellipse;whiteSpace=wrap;html=1;align=center;fillColor=none;fontColor=#33FF33;strokeColor=#33FF33;" parent="1" vertex="1">
                    <mxGeometry x="700" y="620" width="100" height="40" as="geometry"/>
                </mxCell>
                <mxCell id="37" value="No. Asignatura" style="ellipse;whiteSpace=wrap;html=1;align=center;fontStyle=4;fillColor=none;fontColor=#33FF33;strokeColor=#33FF33;" parent="1" vertex="1">
                    <mxGeometry x="690" y="380" width="100" height="40" as="geometry"/>
                </mxCell>
                <mxCell id="44" value="Imparte" style="shape=rhombus;perimeter=rhombusPerimeter;whiteSpace=wrap;html=1;align=center;fillColor=none;fontColor=#33FF33;strokeColor=#33FF33;" parent="1" vertex="1">
                    <mxGeometry x="1000" y="550" width="120" height="60" as="geometry"/>
                </mxCell>
                <mxCell id="48" value="" style="endArrow=none;html=1;rounded=0;entryX=1;entryY=0.5;entryDx=0;entryDy=0;exitX=0.5;exitY=0;exitDx=0;exitDy=0;strokeColor=#33FF33;fillColor=none;fontColor=#33FF33;" parent="1" source="9" target="44" edge="1">
                    <mxGeometry relative="1" as="geometry">
                        <mxPoint x="1160" y="530" as="sourcePoint"/>
                        <mxPoint x="1270" y="590" as="targetPoint"/>
                    </mxGeometry>
                </mxCell>
                <mxCell id="49" value="1" style="resizable=0;html=1;align=right;verticalAlign=bottom;fontColor=#33FF33;strokeColor=#33FF33;fillColor=none;" parent="48" connectable="0" vertex="1">
                    <mxGeometry x="1" relative="1" as="geometry"/>
                </mxCell>
                <mxCell id="52" value="" style="endArrow=none;html=1;rounded=0;entryX=0;entryY=0.5;entryDx=0;entryDy=0;exitX=1;exitY=1;exitDx=0;exitDy=0;strokeColor=#33FF33;fillColor=none;fontColor=#33FF33;" parent="1" source="7" target="44" edge="1">
                    <mxGeometry relative="1" as="geometry">
                        <mxPoint x="1090" y="570" as="sourcePoint"/>
                        <mxPoint x="1250" y="570" as="targetPoint"/>
                    </mxGeometry>
                </mxCell>
                <mxCell id="53" value="N" style="resizable=0;html=1;align=right;verticalAlign=bottom;fontColor=#33FF33;strokeColor=#33FF33;fillColor=none;" parent="52" connectable="0" vertex="1">
                    <mxGeometry x="1" relative="1" as="geometry"/>
                </mxCell>
                <mxCell id="54" value="Ofrece" style="shape=rhombus;perimeter=rhombusPerimeter;whiteSpace=wrap;html=1;align=center;fillColor=none;fontColor=#33FF33;strokeColor=#33FF33;" parent="1" vertex="1">
                    <mxGeometry x="540" y="630" width="120" height="60" as="geometry"/>
                </mxCell>
                <mxCell id="58" value="" style="endArrow=none;html=1;rounded=0;entryX=0.5;entryY=1;entryDx=0;entryDy=0;exitX=0.5;exitY=0;exitDx=0;exitDy=0;strokeColor=#33FF33;fillColor=none;fontColor=#33FF33;" parent="1" source="4" target="54" edge="1">
                    <mxGeometry relative="1" as="geometry">
                        <mxPoint x="940" y="670" as="sourcePoint"/>
                        <mxPoint x="1100" y="670" as="targetPoint"/>
                    </mxGeometry>
                </mxCell>
                <mxCell id="59" value="1" style="resizable=0;html=1;align=right;verticalAlign=bottom;fontColor=#33FF33;strokeColor=#33FF33;fillColor=none;" parent="58" connectable="0" vertex="1">
                    <mxGeometry x="1" relative="1" as="geometry">
                        <mxPoint y="20" as="offset"/>
                    </mxGeometry>
                </mxCell>
                <mxCell id="60" value="" style="endArrow=none;html=1;rounded=0;entryX=0.5;entryY=0;entryDx=0;entryDy=0;exitX=0;exitY=1;exitDx=0;exitDy=0;strokeColor=#33FF33;fillColor=none;fontColor=#33FF33;" parent="1" source="7" target="54" edge="1">
                    <mxGeometry relative="1" as="geometry">
                        <mxPoint x="940" y="670" as="sourcePoint"/>
                        <mxPoint x="1100" y="670" as="targetPoint"/>
                    </mxGeometry>
                </mxCell>
                <mxCell id="61" value="N" style="resizable=0;html=1;align=right;verticalAlign=bottom;fontColor=#33FF33;strokeColor=#33FF33;fillColor=none;" parent="60" connectable="0" vertex="1">
                    <mxGeometry x="1" relative="1" as="geometry"/>
                </mxCell>
                <mxCell id="66" value="Matricula de estudiante" style="ellipse;whiteSpace=wrap;html=1;align=center;fontStyle=4;fillColor=none;fontColor=#33FF33;strokeColor=#33FF33;" parent="1" vertex="1">
                    <mxGeometry x="375" y="290" width="100" height="40" as="geometry"/>
                </mxCell>
                <mxCell id="68" value="No. Asignatura" style="ellipse;whiteSpace=wrap;html=1;align=center;fontStyle=4;fillColor=none;fontColor=#33FF33;strokeColor=#33FF33;" parent="1" vertex="1">
                    <mxGeometry x="480" y="240" width="100" height="40" as="geometry"/>
                </mxCell>
                <mxCell id="69" value="Calificacion" style="ellipse;whiteSpace=wrap;html=1;align=center;fillColor=none;fontColor=#33FF33;strokeColor=#33FF33;" parent="1" vertex="1">
                    <mxGeometry x="600" y="290" width="100" height="40" as="geometry"/>
                </mxCell>
                <mxCell id="87" value="Tiene" style="shape=rhombus;perimeter=rhombusPerimeter;whiteSpace=wrap;html=1;align=center;fillColor=none;fontColor=#33FF33;strokeColor=#33FF33;" parent="1" vertex="1">
                    <mxGeometry x="320" y="350" width="120" height="60" as="geometry"/>
                </mxCell>
                <mxCell id="92" value="Tiene" style="shape=rhombus;perimeter=rhombusPerimeter;whiteSpace=wrap;html=1;align=center;fillColor=none;fontColor=#33FF33;strokeColor=#33FF33;" parent="1" vertex="1">
                    <mxGeometry x="530" y="470" width="120" height="60" as="geometry"/>
                </mxCell>
                <mxCell id="97" value="" style="endArrow=none;html=1;rounded=0;exitX=0.5;exitY=1;exitDx=0;exitDy=0;entryX=0;entryY=0.5;entryDx=0;entryDy=0;strokeColor=#33FF33;fillColor=none;fontColor=#33FF33;" parent="1" target="92" edge="1" source="107">
                    <mxGeometry relative="1" as="geometry">
                        <mxPoint x="610" y="380" as="sourcePoint"/>
                        <mxPoint x="680" y="379.9999999999998" as="targetPoint"/>
                    </mxGeometry>
                </mxCell>
                <mxCell id="98" value="N" style="resizable=0;html=1;align=right;verticalAlign=bottom;fontColor=#33FF33;strokeColor=#33FF33;fillColor=none;" parent="97" connectable="0" vertex="1">
                    <mxGeometry x="1" relative="1" as="geometry"/>
                </mxCell>
                <mxCell id="99" value="" style="endArrow=none;html=1;rounded=0;entryX=1;entryY=0.5;entryDx=0;entryDy=0;exitX=0;exitY=0.5;exitDx=0;exitDy=0;strokeColor=#33FF33;fillColor=none;fontColor=#33FF33;" parent="1" source="7" target="92" edge="1">
                    <mxGeometry relative="1" as="geometry">
                        <mxPoint x="450" y="490" as="sourcePoint"/>
                        <mxPoint x="610" y="490" as="targetPoint"/>
                    </mxGeometry>
                </mxCell>
                <mxCell id="100" value="1" style="resizable=0;html=1;align=right;verticalAlign=bottom;fontColor=#33FF33;strokeColor=#33FF33;fillColor=none;" parent="99" connectable="0" vertex="1">
                    <mxGeometry x="1" relative="1" as="geometry"/>
                </mxCell>
                <mxCell id="101" value="" style="endArrow=none;html=1;rounded=0;entryX=1;entryY=0.5;entryDx=0;entryDy=0;exitX=0;exitY=0.5;exitDx=0;exitDy=0;strokeColor=#33FF33;fillColor=none;fontColor=#33FF33;" parent="1" target="87" edge="1" source="107">
                    <mxGeometry relative="1" as="geometry">
                        <mxPoint x="510" y="380" as="sourcePoint"/>
                        <mxPoint x="340" y="369.9999999999998" as="targetPoint"/>
                    </mxGeometry>
                </mxCell>
                <mxCell id="102" value="N" style="resizable=0;html=1;align=right;verticalAlign=bottom;fontColor=#33FF33;strokeColor=#33FF33;fillColor=none;" parent="101" connectable="0" vertex="1">
                    <mxGeometry x="1" relative="1" as="geometry"/>
                </mxCell>
                <mxCell id="103" value="" style="endArrow=none;html=1;rounded=0;entryX=0;entryY=0.5;entryDx=0;entryDy=0;exitX=1;exitY=0.5;exitDx=0;exitDy=0;strokeColor=#33FF33;fillColor=none;fontColor=#33FF33;" parent="1" source="8" target="87" edge="1">
                    <mxGeometry relative="1" as="geometry">
                        <mxPoint x="-40" y="630" as="sourcePoint"/>
                        <mxPoint x="120" y="630" as="targetPoint"/>
                    </mxGeometry>
                </mxCell>
                <mxCell id="104" value="1" style="resizable=0;html=1;align=right;verticalAlign=bottom;fontColor=#33FF33;strokeColor=#33FF33;fillColor=none;" parent="103" connectable="0" vertex="1">
                    <mxGeometry x="1" relative="1" as="geometry"/>
                </mxCell>
                <mxCell id="123" style="edgeStyle=none;html=1;exitX=1;exitY=0;exitDx=0;exitDy=0;entryX=0;entryY=1;entryDx=0;entryDy=0;strokeColor=#33FF33;fontColor=#33FF33;fillColor=none;" edge="1" parent="1" source="107" target="69">
                    <mxGeometry relative="1" as="geometry"/>
                </mxCell>
                <mxCell id="124" style="edgeStyle=none;html=1;exitX=0.5;exitY=0;exitDx=0;exitDy=0;entryX=0.5;entryY=1;entryDx=0;entryDy=0;strokeColor=#33FF33;fontColor=#33FF33;fillColor=none;" edge="1" parent="1" source="107" target="68">
                    <mxGeometry relative="1" as="geometry"/>
                </mxCell>
                <mxCell id="125" style="edgeStyle=none;html=1;exitX=0;exitY=0;exitDx=0;exitDy=0;entryX=1;entryY=1;entryDx=0;entryDy=0;strokeColor=#33FF33;fontColor=#33FF33;fillColor=none;" edge="1" parent="1" source="107" target="66">
                    <mxGeometry relative="1" as="geometry"/>
                </mxCell>
                <mxCell id="107" value="Matricula en Asignatura" style="shape=ext;margin=3;double=1;whiteSpace=wrap;html=1;align=center;fillColor=none;fontColor=#33FF33;strokeColor=#33FF33;" parent="1" vertex="1">
                    <mxGeometry x="480" y="360" width="100" height="40" as="geometry"/>
                </mxCell>
            </root>
        </mxGraphModel>
    </diagram>
</mxfile>